/* XPM */
static char *_____________[] = {
/* columns rows colors chars-per-pixel */
"64 64 256 2",
"   c #010101",
".  c #090605",
"X  c #060806",
"o  c #090906",
"O  c #05060A",
"+  c #09070B",
"@  c #070909",
"#  c #0B0B0B",
"$  c #140B03",
"%  c #110E0D",
"&  c #1C0E06",
"*  c #0E100D",
"=  c #11110E",
"-  c #1C1509",
";  c #0C0D12",
":  c #0D0E1A",
">  c #110F11",
",  c #100E19",
"<  c #0F1111",
"1  c #0D101C",
"2  c #121212",
"3  c #15131A",
"4  c #241A0D",
"5  c #271508",
"6  c #371909",
"7  c #271D13",
"8  c #240E05",
"9  c #352918",
"0  c #0F1221",
"q  c #131423",
"w  c #15192C",
"e  c #161729",
"r  c #161A34",
"t  c #181D38",
"y  c #221F3C",
"u  c #1D223B",
"i  c #23253C",
"p  c #232538",
"a  c #481E0B",
"s  c #57270E",
"d  c #4F3116",
"f  c #792A07",
"g  c #7C320B",
"h  c #673714",
"j  c #703310",
"k  c #714519",
"l  c #5A452C",
"z  c #694E2B",
"x  c #795427",
"c  c #775935",
"v  c #6C4E2E",
"b  c #7E623D",
"n  c #1C2346",
"m  c #222744",
"M  c #232A4D",
"N  c #272A46",
"B  c #2E3049",
"V  c #30344F",
"C  c #272D56",
"Z  c #2B3259",
"A  c #2C3152",
"S  c #343758",
"D  c #322F4C",
"F  c #2B3467",
"G  c #353B69",
"H  c #2D366F",
"J  c #3B416B",
"K  c #3A437A",
"L  c #795E40",
"P  c #44466A",
"I  c #43497B",
"U  c #484B74",
"Y  c #57577D",
"T  c #812D08",
"R  c #84330C",
"E  c #8B340E",
"W  c #8C390E",
"Q  c #873B0E",
"!  c #923B0F",
"~  c #91360F",
"^  c #8C3510",
"/  c #8C3B11",
"(  c #853C13",
")  c #933C13",
"_  c #9A3E14",
"`  c #983C16",
"'  c #8C400F",
"]  c #8E4213",
"[  c #8A4819",
"{  c #944315",
"}  c #9A4316",
"|  c #954916",
" . c #9A4A17",
".. c #954518",
"X. c #9B4419",
"o. c #964B19",
"O. c #9C4C1B",
"+. c #9D531C",
"@. c #98561B",
"#. c #A2441A",
"$. c #A24D1C",
"%. c #A94A1D",
"&. c #A04D17",
"*. c #A3521E",
"=. c #A9531F",
"-. c #A1591E",
";. c #8A5722",
":. c #9D5C21",
">. c #9A5722",
",. c #944B20",
"<. c #A84D20",
"1. c #A45321",
"2. c #AB5422",
"3. c #A45D23",
"4. c #AB5B24",
"5. c #AC5D29",
"6. c #B15C26",
"7. c #B35C28",
"8. c #9D6727",
"9. c #966B37",
"0. c #9D733C",
"q. c #A46425",
"w. c #AA6326",
"e. c #A56927",
"r. c #AB6C27",
"t. c #A56528",
"y. c #AB6529",
"u. c #A56C2A",
"i. c #AB6C2A",
"p. c #B2652A",
"a. c #B36C2D",
"s. c #B6682B",
"d. c #AD722D",
"f. c #A7702D",
"g. c #B1732E",
"h. c #B4782E",
"j. c #A47236",
"k. c #AC7433",
"l. c #A4753C",
"z. c #AB7639",
"x. c #AC7A3B",
"c. c #A6793E",
"v. c #B37532",
"b. c #B57A33",
"n. c #BA7B34",
"m. c #B27C3B",
"M. c #B97E39",
"N. c #B87634",
"B. c #AB6E33",
"V. c #C07934",
"C. c #9C7647",
"Z. c #8F6F48",
"A. c #A27643",
"S. c #A47A44",
"D. c #AB7D45",
"F. c #A47B4B",
"G. c #AB7E4A",
"H. c #B27E43",
"J. c #A37E52",
"K. c #B5803E",
"L. c #BC813B",
"P. c #BD8037",
"I. c #C3833B",
"U. c #C5873C",
"Y. c #AC814B",
"T. c #AD8146",
"R. c #B58244",
"E. c #BB8444",
"W. c #B3844C",
"Q. c #B5894F",
"!. c #BB8A4C",
"~. c #BB8949",
"^. c #AB8554",
"/. c #A5845B",
"(. c #AA865A",
"). c #AE8A5C",
"_. c #A78455",
"`. c #B38652",
"'. c #B58953",
"]. c #BA8C53",
"[. c #B38D5D",
"{. c #BC8E5A",
"}. c #BB8650",
"|. c #BD915B",
" X c #B7915B",
".X c #AD8C62",
"XX c #B28E62",
"oX c #B58F67",
"OX c #B59263",
"+X c #BB9463",
"@X c #B4936A",
"#X c #B9966B",
"$X c #BD9A6B",
"%X c #B7986C",
"&X c #BD9D75",
"*X c #AC9069",
"=X c #C48A47",
"-X c #C18F53",
";X c #C29355",
":X c #C3945B",
">X c #C7985C",
",X c #C29964",
"<X c #C29C6A",
"1X c #C59963",
"2X c #C29F77",
"3X c #C6A16E",
"4X c #C6A377",
"5X c #384588",
"6X c #384896",
"7X c #3C55B2",
"8X c #434C84",
"9X c #464D88",
"0X c #4B5287",
"qX c #56588A",
"wX c #414C96",
"eX c #475399",
"rX c #545B99",
"tX c #5D619E",
"yX c #4455A7",
"uX c #505BAD",
"iX c #5B63AC",
"pX c #5A62A4",
"aX c #5965B7",
"sX c #4D60BF",
"dX c #676BA9",
"fX c #646DB8",
"gX c #6A72BA",
"hX c #7778BA",
"jX c #6D73AD",
"kX c #666C9E",
"lX c #4C62CC",
"zX c #4E63C4",
"xX c #5C6AC2",
"cX c #5366CD",
"vX c #5569CE",
"bX c #5B6CCD",
"nX c #5464C4",
"mX c #5B6DD0",
"MX c #5467D1",
"NX c #5368CF",
"BX c #616ECD",
"VX c #646FC3",
"CX c #6572CC",
"ZX c #6C76CB",
"AX c #6D79CB",
"SX c #6873C6",
"DX c #747BC5",
"FX c #737ACB",
"GX c #7A7ECA",
"HX c #7278C8",
"JX c #6470D0",
"KX c #7F83C6",
"LX c #7D81C9",
"PX c #7780CB",
"IX c #8183C9",
"UX c #8284C6",
/* pixels */
"@ O @ # > 2 3 < X . + # # % 2 # # # @ O # 2 # @ = 2 2 2 < @ # # @ # # O @ # # # 2 2 2 2 < < # # # # @ @ # O # # + + O O + * * 2 ",
"x.A.XX%X%X%X@X/./..X*XXXOX[.Y.% ].^.(..X@X@X&X/.@X%X4X4X3X{.,X# '.[.XX.X4X2X2X.X/.@X&X%X).{.].@ `.`.(./.oXOX%X%X.XoX.XJ.[.[.!.# ",
"e.9.^.[.XX.X(._..X.XXX[.^.R.z.@ E.H.Y.OX%X).@X/..X@X4X<X{.}.=X= m.W.`.[.@X$X$X$X$XOX%X+XY.D.H.# x.T.Y./.XXXX@XOXXX@XJ.F.W.T.v.+ ",
"[ e.x.H.S.Y.G.G.].`.W.G.x.v.q.X v.v.K.;X;X`.W.'.].].W.W.m.b.n.# d.v.m.D.W.}.].1X1X;X;X;Xx.k.r.% i.u.z.D.G.'.'.'.'.Y.9.S.m.d.:.@ ",
"Q 3.w.r.r.r.i.i.n.g.r.t.3.3.+.O 3.3.y.g.h.I.M.I.I.n.i.t.3.-.3.# 3.3.w.p.n.b.n.U.U.U.M.g.a.3.w.* -.@.3.8.i.g.g.n.P.g.@.v.w.1.O.O ",
"{ *.$.O.o...o.| } o.| { { | o.. ] o.O.#.*.6.=.4.=.1.O.} { ..+.= 2.| ] O.2.&.2.6.6.*.$.$.#.=.4.= | { { / O.O.$.1.5.2.{ 1.+.O. .@ ",
"{ } %.#.} ` ) #.R ) R W ! ..2.@ Q { X.%.} _ } #.} } } #.{ ) 2.3 6.O.W R ..X.#.#.#.} { ` X.$.*.# O.{ ) W X.#.} #.%.%./ _ $.#.O.# ",
"{ |  .4.4.<.O.X.{ / / / | $.w.# 1.O.$.*.O.} $.%.2.$.*.4.O.*.p.2 s.4.$.o.O.%.*.%.%.6.4.%.+.+.*.@ 4.4.1.O.O.O.} $.2.4.| ..O.7.s.> ",
"# o # @ @ . # # # # # # # # # ; # # ; # 2 @ 2 * = 2 < < # @ 2 , > @ + o + # > 2 2 < > @ @ # # # % ; #   X o = 2 2 2 # # @ @ @ . ",
"i.z.j.0.l.z.k.# P.m.R.{.|.].Y.].Y.^.G.T.W.E.M.+ M.=X].'.Y.`.].'.].].'.D.0.m.U.# v.z.R.W.`.W.`.].|.|.>XW.D.k.L.2 U.=XH.D.A.j.l.k.",
"i.z.A.S.G.E.v.; L.m.W.'.XX).XXOX X(.F.F.W.~.v.. b.~.}.Y.(.^._.XX$X,X[.^.0.m.U.2 u.0.S.F.F.(.[.OX X+X$X|.Q.R.=X2 =X~.G.J.F.A.x.b.",
"q.k.m.K.E.M.i.% h.k.x.D.W.T.'.}.].G.C.x.m.M.r.X i.M.m.l.S.D.D.W.].W.G.l.j.b.n.# r.d.m.l.A.G.'.`.Y.Y.T.D.x.P.I.3 V.P.m.R.R.m.n.a.",
"*.3.a.s.a.s.3.= 3.@.3.a.i.e.g.g.v.i.i.i.a.p.3.. 3.w.y.w.d.g.i.e.f.d.i.y.w.w.p.* 3.y.y.r.v.M.b.i.e.e.8.@.:.5.s.2 p.w.w.a.n.s.p.5.",
"{ { $.*.*.2.7.2 >.W { o.....o.| | O.&.O.<.6.4.+ $.1.2.2.%.O.O.] { O.*.=.2.1.*.> *.<.) { =.6.1.O.O.*.| ' E ..4.< -.$.{ { O.$.$.=.",
"} X.} } #.<.1.@ #.) ` ) ! ) ) ~ ! _ ) ..} X.*.@ | #.$.` Q T ) T R } $.%.%.1.*.2 5. .T R W <.#._ ` { ` ! R Q %.2 7.$.! } } { } %.",
"$.*.1.$.O.+.+.* s.1...| O.1.} } $.$.o.O.2.3.3.> 3.4.=.4.*.{ { ` | %.2.2.7.1.4.2 s.4.O.{ %.1.h 6 s O.O.O.] +.y.3 s.*.*.*.*.#.| ! ",
"; 2 # = # # # # ; 2 ; # % # X X # @   o # # # ; # % # # # 2 # @ # 2 2 # 2 % % % < # ; # .           @ o + + o > # + > > # # # @ ",
"M.=X!.Q.].'.^.Y.Y.].].Q.!.K.u.          7 C.{.'.[.'.G.c.W.=XM.o g.H.!.!.S.c 9 %       - -           v ;X'.`.'.Y.Y.Y.{.:X!.E.v.# ",
"b.=X]. X+XoXJ.(.(.[.).[.].R.x             7 $XOX+X)._.F.Y.R.b.+ i.x.!.Z.3                   # Y     d 3X<X#XOX)._. XOX,X!.R.v.# ",
"q.g.m.~.].}.S.G.].T.D.H.E.b.$     B U       ].Q.Y.0.v 9.m.k.q.O t.v.x           ; 2         P Y     d ].>X:X>X:X^.!.Y.R.m.n.s.# ",
"| @.3.a.N.d.e.q.I.d.r.w.t.h     , UXUX:     u.;.&       & s @.@ >.[       + U hXUXIXUXdXqXkXUXS     h k.I.I.I.N.d.h.e.3.3.4.4.# ",
"R R ] o.=.$.] |  .O. .o.(       qXIXIX#     s               $ O g 4     q jXUXIXLXIXIXUXIXKXUXq     g 1.1.6.1.O.O.O.g W ] X.*.X ",
"R E W ) ` ) f T ^ { ` { 8     p IXLXKXq           + i ;               O jXLXIXLXIXhXKXLXUXLXLXq     j T #.#.%.$.} / T R W ) O.@ ",
"| ] $.O.{ / Q / W  .O.1.      dXPXKXGXV         p gXGXGXqX;           S LXGXLXU #   DXLXLXPXhX@     / ( j h j ..$.{ | { $.-.+.o ",
"# + @ # X X X   X   X       w PXGXPXU PXqX  O U FXGXGXPXFXw     : S e dXDXGXdX      dXPXjXdXD                     X + @ @ # o . ",
"d.x.R.D.z $                 V GXGXFXi GXdX: pXGXGX0XN U Y   # P DXFXFXGXGXFXJ       i HX1                             7 9.G.l.f.",
"d.k.T.9                     0XFXFXdX  gXFXdXFXFXN     # m 0XHXFXtXFXP FXDXjX        O q m hXq         # u B i :         o c j.i.",
"+.q.z       : i S I 0X0XU Z HXFXFX0X  rXFXFXFXJ O Z tXAXFXFXgX3 O A O AXAXpX    + V rXAXHXFXSX0XS A I SXFXFXFXFXpXB         ;.q.",
"+.| 6     J HXAXZXFXAXAXAXAXZXZXAXpX  8XAXFXAXw I AXAXFXfXu :     e A AXFXAXrX0XSXAXFXFXFXZXFXAXAXZXAXZXZXAXFXAXZXFXrX<     d =.",
"| ' .     fXAXAXSXfXJ G 0XZXZXZXAXAXr rXAXZXfXA 8XI u AXiX    ; 9XAXAXAXZXZXZXZXZXZXZXiXG m fXZXAXAXZXZ   + G AXZXAXAXpX    & { ",
"{ ..$     iXJXCXZXw       eXZXZXCXZXfXfXZXCX+       n CXZXJ K VXZXCXAXZXVXZXCXZXVXI t ; G SXZXJX8XiXZXG       pXZXZXCXeX    8 ! ",
"*.O.6     i CXCXVX        fXCXiXSXCXJXCXCXJXO   N rXZXJXCXCXCXCXZXCXCX5XO r A u O   A aXJXCXVXaX  ; fXSX:     wX9XM G +     a / ",
"2 @ O       1 aXaX      w CXCX1 aXVXM xXBXVX; ; CXCXCXCXCXCXCXJXCXaXN   t       ; eXBXCX8X: bX9X    S JXF     N ;           + O ",
"I.m.~.z       Z K       Z BXeX  G H m 8XBXBXO q CXmXCXCXBXmXJXxXZ w K aXxX:   w aXCXxXM   O uXK     r CX8X              - 9.a.@ ",
"I.m.W.[.c               eXbXC   O   Z G BXmXt   uXbXbXBXCXmXuX: q xXbXbXxXr m bXbXbXn     e A 0     n bXsX1       - v Z.T.K.g.# ",
"a.e.j.A.Y.7           O bXbX:           5XbXwX  : wXbXbXbXbXM M nXmXBX5X  C mXbXbXt                 5XmXbXuXH     l  Xc.j.q.4.# ",
"o.o.w.r.d.>.4         u bXmX1           w bXNXr     n mXmXmXnXbXvXyXmXr n bXbXmX5X            0 M yXvXbX5Xr       x e.3.q.3.*.@ ",
"{ | O.$.O.| O.] s     t vXcXe     [       yXvXvX5XF yXmXNXvXvXvXM O C 0 NXcXK vXlXn w M H wXzXMXNXbXyX0         8 o.{ o.|  .o.@ ",
"Q R ^ ) _ E T W f       F sX      O.a     q yXlXMXMXmXMXMXlXcXn       wXlXr   sXMXMXMXMXvXNXMXcXzXF           8 g ! R R ^ ` O.. ",
"O.o.O.O.$. .Q / W s     : n     5 1.,.        O q t n MXMXMXC       r lXu     yXMXMXwXyXyXnXyXr         . s / ) / ..O.o.O.*.w.# ",
"# > < # * # X X @ .             X # * @             O lXMXlX        5XH       6X6XF       O O           @ # # @ . # # 2 = * 2 # ",
"v.M.;X;X!.E.g.+ v.k.c $       l '.].Q.Y.9.d -       r lXlXlX        6XO       5Xt                 4 b D.D.k.v.o k.m.R.'.:X;XE.M.",
"b.E.].|.W.E.m.X d.D.}.{.J.c J.$X).).`.Y.0.j.u.X O   n lXlXlX                  :       7 7     4 Z.OX,XF.G.m.v.@ d.H.}.OX,X].E.M.",
"3.b.=XE.m.b.i.# g.U.E.W.G.Y.F.Y.'.{. Xc.8.u.w.X     O 5X7XF     %       $ %         4 W.W.C.0.A.G.].W.x.H.n.d.# M.P.x.R.-XE.g.w.",
"-.o.3.t.a.y.3.> +.p.n.N.d.v.t.e.q.b.V.b.w.w.p.# 5 O             k d 6 d :.x $     5 ;.g.i.g.f.g.b.I.v.d.p.w.p.2 6.w.t.-.q.w.y.4.",
" .} ..} O. ./ > | $.2.6.1.o.O.$.]  . .O.$.1.6.3 [ $           6 | | o.2.%.} } # o.) / O.*.4.4.*.%.4.1.=.4.4.2.< 6.1. .| }  .O.} ",
") ) ! ! ! Q R # | ..#.#.) Q ~ ) E ) ` X.} ..$.= 4. .s 6 $ 6 f / ! ! _ #.&.O.O.# O.) W  .%.%.%.#.X.} ) #.#.%.2.> *.O.! ) E ! ) R ",
"..o.| $.1.+.[ X o.O.1.1.$...) { &.| O.O.O.o.3.o 1.1.1.4.$.{ } o.{ { | *.2.6.y.# @.O.>.%.%.1.<.%.%.$./ | <.p.s.2 3.O.| | } O.O.) ",
"O # @ # < < @ @ O X % = # #   # # # @ X X O @ + . @ # 2 % o # # O X # # > 2 > X O @ 2 # o # 2 2 = # # + # 2 3 < X X X @ @ @ % > ",
"u.L.R.T.T.].:X:X'.G.'.W.D.z.u.o L.K.c.0.0.G.[.`.T.G.`.{.].x.g.# u.j.}.;X:X>X1X'.D.W.>X!.l.K.L.= U.~.W.R.|.].].W.G.F.Y.Q.W.k.w.; ",
"e.m.].[.[.<X<X$X(.[.^.G.A.l.d.# b.m.D.G.(.<X[.J.C._.[.'.W.H.i.X k.E.].+XOX<X<X<XOX+X+X<X0.z.L.2 =XE.T.+X<X)._.^.OX.X^.'.].K.d.2 ",
"i.v.j.T.'.].>X].G.G.W.c.8.t.d.2 n.M.z.l.W.;XT.Y.'.].;X;X=XL.u.X a.K.m.z.G.;X:X'.].>X>X!.x.M.i.# g.n.x.}.;XY.G.Y.W.W.Q.W.z.g.p.# ",
"=.3.3.r.g.k.b.P.g.t.r.y.@.:.p.% 3.p.s.N.h.M.U.I.I.n.g.t.w.w.-.o +.-.y.t.t.b.h.g.a.z.i.r.@.@.3.= s.s.w.r.n.v.n.n.n.n.h.g.3.3.*.o ",
"*.O.} O.$.O.$.1.+.{ | o. .O.O.. | O.2.2.2.%.4.4.4.O.o.o.) O.#.+ | ..] { O.O.| O.| o...{ R / | + 1.7.$.| $.$.| { $.6.1.$.| X.$.# ",
"#.} ` } } ` ) _ ` ^ / ) ..} o.. W | #.$.} ! ` } } ! ~ W ^ O.o.# O.{ ) ~ } ) ` ) / ) ` ) ^ ..+.; 1.2.%._ ` ) Q R W #.} _ ) O.$.# ",
"*.$.1.*.$.o.| +.*.o.{ o. .1.+.+ ] +.*.=.1.$.} X.{ O.$.$.+.*.>.+ -.O.*.O.$.| 2.O.o. .*.*.$.*.w.# 3.4.6.1.O.O...` } O.O.$.*.3.3.@ ",
"# * # # # X @ % 2 @ @ @ @ # # + O O # ; 2 = @ # o o = 3 ; # X X X @ # # # @ = @ @ # # 2 # # # # # # # 2 % % # # # # # o % @ # o ",
"g.k.D.'.].].}.Q.].W.G.T.W.'.'.`.`.T.Y.W.;X~.b.# d.x.Q.].W.G.G.G.G.W.}.`.Y.'.{.G.T.'.{.].;X{.'.'.Q.Y.Y.`.-XK.M.# v.m.R.D.H.W.R.M.",
"i.u.W.[.+X<X3X$X^._.(.[.[.+X<XOXOX{.(.J.!.~.x.# P.=X>X,X<X^.OXOX).[.[.^.[.OXOXOX+X$X<X,X+XOXXX[.OX).(.G.D.z.k.# B.x.G.C.).].E.U.",
"@.8.m.R.Q.'.W.S.A.F.G.W.'.}.G.'.{.G.D.x.m.v.N.  i.L.=X;X>X'.:X'.'.`.Y.W.-X:X:XD.G.W.|.}.T.].}.'.W.G.G.j.x.h.v.# r.k.z.0.H.m.n.y.",
"| | t.i.d.d.e.q.i.v.d.g.d.d.i.d.n.d.i.v.a.:.3.. -.w.g.V.h.n.U.b.v.v.g.d.b.n.M.I.n.n.n.M.e.r.h.b.d.i.u.t.q.3.4.# 3.3.@.@.w.y.1.+.",
"g ] } } } } o.| *.$.O. .O.O.| | 1.O.O.2.2.$.$.> 2.O.O.O.O.$.1.%.O.O.O.O.O.$.*.6.6.6.2.4.O.| +.%.O...| } { O.$.# 1. .g )  ...) { ",
"f ` ! E R E E E ` ) E E ~ E R R ~ ~ ) ) ` #.$.% <.} E E E E ~ ` ) E ~ ) _ ) _ #.%.#._ } ` ) ` _ ~ R E T E _ } # %.) f ) ) ^ ^ W ",
"o 2 % # o + . ; . @ O . + # + @ . + # # ; 2 2 = 2 % # + @ . # % % # . @ % % 2 2 2 > # # 2 # 2 % + + . X # % # = 2 2 @ ; * # @ @ "
};
