/* XPM */
static char *_____________[] = {
/* columns rows colors chars-per-pixel */
"64 64 256 2",
"   c #060606",
".  c #090606",
"X  c #060906",
"o  c #090906",
"O  c #060609",
"+  c #090709",
"@  c #070909",
"#  c #0B0B0B",
"$  c #100E0E",
"%  c #0E100F",
"&  c #11110F",
"*  c #0E0E11",
"=  c #110F10",
"-  c #0F1111",
";  c #131313",
":  c #181617",
">  c #161817",
",  c #191916",
"<  c #161618",
"1  c #181719",
"2  c #161A1A",
"3  c #1B1B1B",
"4  c #211E1F",
"5  c #1E201E",
"6  c #20201E",
"7  c #2A231A",
"8  c #3A2216",
"9  c #1E1E20",
"0  c #201E21",
"q  c #1E2121",
"w  c #222223",
"e  c #2C2924",
"r  c #362C21",
"t  c #312622",
"y  c #3A352F",
"u  c #472312",
"i  c #592613",
"p  c #41301C",
"a  c #513A1B",
"s  c #7C2D0A",
"d  c #782B07",
"f  c #7E3307",
"g  c #7C320C",
"h  c #7B390F",
"j  c #77330C",
"k  c #682C10",
"l  c #6A3412",
"z  c #713512",
"x  c #7C3613",
"c  c #7D3C13",
"v  c #773914",
"b  c #4C3820",
"n  c #423524",
"m  c #573F27",
"M  c #7F4118",
"N  c #7D4E18",
"B  c #5B4427",
"V  c #604728",
"C  c #614321",
"Z  c #794E23",
"A  c #7C572D",
"S  c #664E36",
"D  c #7A5B34",
"F  c #745835",
"G  c #812E0B",
"H  c #882F0D",
"J  c #84340D",
"K  c #8A340E",
"L  c #843A0E",
"P  c #8C3A0E",
"I  c #923B0F",
"U  c #842F10",
"Y  c #843612",
"T  c #8B3611",
"R  c #843C13",
"E  c #8C3C13",
"W  c #8C3F18",
"Q  c #933D14",
"!  c #993E15",
"~  c #933E18",
"^  c #9B3E18",
"/  c #854315",
"(  c #8D4315",
")  c #8B4A15",
"_  c #854718",
"`  c #8D4419",
"'  c #8D4A1B",
"]  c #944315",
"[  c #9A4316",
"{  c #944917",
"}  c #994917",
"|  c #934519",
" . c #9B451A",
".. c #954A1B",
"X. c #9B4B1C",
"o. c #84531D",
"O. c #8C531C",
"+. c #94521C",
"@. c #9B531D",
"#. c #94591E",
"$. c #9D5A1E",
"%. c #A2451B",
"&. c #A24C1C",
"*. c #A2521E",
"=. c #A2591F",
"-. c #A8521F",
";. c #98631F",
":. c #9B4D20",
">. c #885621",
",. c #8E5C23",
"<. c #875E2F",
"1. c #935421",
"2. c #9C5421",
"3. c #945C22",
"4. c #9C5B23",
"5. c #945F29",
"6. c #9D5F29",
"7. c #825D30",
"8. c #A14E21",
"9. c #A94E21",
"0. c #A45321",
"q. c #AA5423",
"w. c #A45C24",
"e. c #AB5B24",
"r. c #AC5B28",
"t. c #A65D28",
"y. c #B05C26",
"u. c #8F6028",
"i. c #956225",
"p. c #9C6325",
"a. c #9E6927",
"s. c #94632A",
"d. c #9D662A",
"f. c #9E6B2E",
"g. c #96682A",
"h. c #8D6232",
"j. c #87633A",
"k. c #89663A",
"l. c #8E693B",
"z. c #946A34",
"x. c #9C6D34",
"c. c #956D3C",
"v. c #9C6E3A",
"b. c #9C723D",
"n. c #95703B",
"m. c #A46325",
"M. c #AA6426",
"N. c #A46A27",
"B. c #AB6A26",
"V. c #A36529",
"C. c #AB6429",
"Z. c #A46C2B",
"A. c #AB6C2B",
"S. c #B2662B",
"D. c #B36B2D",
"F. c #B96E2E",
"G. c #A6702D",
"H. c #AC712D",
"J. c #B2732E",
"K. c #A36E33",
"L. c #AD6E31",
"P. c #A26F38",
"I. c #B46F32",
"U. c #A47234",
"Y. c #AC7333",
"T. c #AC7936",
"R. c #A3743B",
"E. c #AA763A",
"W. c #A5793E",
"Q. c #AD7A3B",
"!. c #B27532",
"~. c #B47A34",
"^. c #B97B34",
"/. c #B27C3C",
"(. c #BA7D39",
"). c #B87531",
"_. c #866640",
"`. c #8D6C46",
"'. c #8A6843",
"]. c #916D40",
"[. c #986D40",
"{. c #8D7247",
"}. c #957244",
"|. c #9D7443",
" X c #9E7945",
".X c #95744A",
"XX c #9A764A",
"oX c #9D7A4C",
"OX c #937651",
"+X c #9C7C51",
"@X c #A27643",
"#X c #A37A45",
"$X c #AB7D44",
"%X c #A07648",
"&X c #A57C4A",
"*X c #AA7E4A",
"=X c #B37E42",
"-X c #BB7F41",
";X c #A27E53",
":X c #A87F51",
">X c #B6813E",
",X c #BD823C",
"<X c #BC8037",
"1X c #C3833B",
"2X c #C98B3E",
"3X c #AE8246",
"4X c #A6814E",
"5X c #AC824D",
"6X c #B48243",
"7X c #BB8445",
"8X c #BE8947",
"9X c #B3844C",
"0X c #B9874B",
"qX c #B6884E",
"wX c #BC8B4E",
"eX c #A58254",
"rX c #AC8453",
"tX c #AD8954",
"yX c #A5845B",
"uX c #AA865A",
"iX c #A7885A",
"pX c #AD8A5C",
"aX c #B28652",
"sX c #BB8652",
"dX c #B48954",
"fX c #BA8C54",
"gX c #B38C5C",
"hX c #B98E5A",
"jX c #B18659",
"kX c #BD9057",
"lX c #B6915D",
"zX c #BB915B",
"xX c #AD8C62",
"cX c #A58761",
"vX c #B28E62",
"bX c #B18F69",
"nX c #AC9069",
"mX c #B59264",
"MX c #BA9463",
"NX c #BD9966",
"BX c #B4936A",
"VX c #BA966B",
"CX c #BD9B6C",
"ZX c #BD9B74",
"AX c #BB9974",
"SX c #C58B48",
"DX c #C08E53",
"FX c #C19257",
"GX c #C1945D",
"HX c #C6985D",
"JX c #C79860",
"KX c #C39C6B",
"LX c #C39561",
"PX c #C5A16E",
"IX c #C3A175",
"UX c #C7A47A",
/* pixels */
"@   @ # - ; ; ;     + # # # ; # * # @ O # ; # @ - ; ; - - @ # # # @ * O # # * # * * ; - - = # o % # # X X O @ o @ @ # O # # $ ; ",
"Q.%XvXVXVXVXnXcXyXxXnXbXvXhX5X$ fXrXuXxXbXBXZXyXBXCXUXUXIXhXHX# dXlXpXxXIXIXZXxXyXBXZXVXpXlXdX# 5XtXiXyXBXBXVXAX0 5 cXeXvXgX7X# ",
"N.f.rXgXgXxXuXeXxXxXvXgXtX6XE.@ -X$X5XmXVXpXmXeXiXVXCXKXfXwXSX# Q.qXaXgXmXVXZXPXVXVXNXMX4X$X/.# /.$X4XeXpXmXmXmX3 mX;X+XrX=XY.# ",
") Z.Q.$X$X4X*X*XfXaX9X3XT.!.m.@ !.~.>XSXkXdXdXdXfXfX9X9X/.~.^.% B.~./.$X9XdXfXHXJXGXFXFX/.A.D.% B.Z.T.$X5XdXq w 6 3Xc.R./.J.4.@ ",
"L m.M.B.B.A.H.A.^.J.B.m.t.=.@.@ =.m.M.J.).<X^.1X1X^.J.m.w.=.q.# m.=.M.A.~.J.^.1X2X1X^.).S.m.M.# w.+.w.p.B.3 9 3 q 3 #.D.M.@.+.. ",
"] 0.&.X.X.] } } } X.] ] ] ] X.@ ] ] X.&.&.e.e.e.e.0.X.[ ] | @.& q. .] w w w 3 y.y.-.&.&.*.*.r.; } ] ] P 9 3 0.9.e.5 3 3 &.X.] o ",
"] [ %.[ [ ! Q %.J I J P Q ] -.o E ] %.&.%.! [ %.^ [ [ %.] ] q.> y.%.P K [  .e w w ! [ ! [ &.q.# } ] ] I [ &.^ [ 9.&.~ [ %.%.X.# ",
"] ] &.y.e.-. . .] P P ( ] &.M.# *.X.*.*.} [ &.9.-.&.-.q.&.X.S.; D.q.X.X.X.:.w w w y.=.*.X.@.@.@ w.q.0.} X. .[ X.-.q.] ] X.e.D.& ",
"# # @ # @ + # # # # # # o @ # ; @ # $ $ ; . - ; # ; ; & = @ ; ; % @ # o @ # ; ; # - ; @ # @ # # * = # X   # & ; ; ; # @ @ # @ . ",
"G.Y.U.b.R.T.Y.@ ^.>X0XfXkXdXrXfXrX5X*X*X6X>X^.# 3 3 1 3 0 rXdXdXdXdX9X$Xx.T.,X; Y.Y.$X6XdX5X9XhXhXhXGX3X$XU.~.; (.SX$X$X@Xv.U.Y.",
"A.Y.R.&X*X7X).= ,X>X3XgXmXgXgXmXlXuX&X4XqX7XY.  3 3 fX4XeXrXrXvXNXNXgX4XR./.SX* Z.K.#X&X&XeXpXmXmXmXMXlX*X6X,X; SX7X#X&X X@XE.!.",
"m.!./.6X7X^.A.$ ).H.T.3X3X*XsXdXfX5X|.W.=X(.A.. 1 (./.b.$X$X@X9XsXdX$XR.x.~.).= M.A.W.@X|.*X9X9X*X*X$XR.Q.(.(.; ).~.E.$X$X/.~.B.",
"*.w.F.F.F.S.e.$ m.+.4.D.B.Z.!.J.~.B.B.B.A.D.w., 1 3 M.A.B.Y.G.N.Z.B.N.m.w.C.C.# m.m.B.m.H.^.Y.G.m.N.p.O.@.t.C.; C.m.w.A.).I.C.r.",
"] ] &.@.&.q.C.$ X.P ] X.[ ] X.{ ] X.@.X.9.e.q.. X.3 3 , , , , ~ ` X.-.0.0.&.0.# 0.&.! E 0.e.9 3 3 3 3 P L ( 0.; *...E ]  .X.&.9.",
"[  .! ! %.-.-.o } ] ! E I ! Q T I [ ! ] [  .0.  ] X.%.~ J G 3 , J 3 3 3 &.&.&.; r.] s J P &.%.[ ~ 1 3 q J J X.; e. .E Q ~ E [  .",
"@.-.0.&.X.X.$.& S.*.{ ] } 0.[ [ &.&...X.0.q.w.& q.w.0.q.2.Q Q 3 3 3 3 3 3 9 w.- S.e.X.E X.&.&.[ [ X...3 6 3 1 < C...X.*.X.X.! P ",
"$ $ # # # @ @ $ $ ; ; # & # . + # # o o @ * * # # # # # % % @ # @ # ; # % # # - # ; * o # # # # - # @ @ . + @ # # + # & # # # @ ",
"^.SXwX9XfXdX5X3X*XhXdXsXwX>XZ.. !.T.$X#X3XsXfXuXdX5X%Xb.3X,X~.@ Z.E.0X5X@X&XaXrXtX*X*X%X#XQ.Y.; ,X>X$XfXrX&XrX X@X%XjXsX9X/.A.# ",
"~.8XfXhXMXvX;XuXrXuXuXdXqX7XT.# K.R.3X4XeXgXNXvXxXtXoXXX&X$XY.X f.E.rXeXoX;XeXuXuXrXeX*X#X/.Y.- >X6XaXMXMXvXgXyX+XpXpXhXaX/.!.# ",
"m.J./.0XfX9X@X&XdX&X$X$X/.(.~.# J.f.7.$X3XdXsXaX4Xb.v.n.U.Z.4.O 4.U.Q.R.[. X#X&X&X&X*XW.P.Y.N.o H.~.Q.9XfXaXhXdX&XrX&X$XQ.!.C.$ ",
"{ +.w.A.).H.V.p.^.G.V.V.M.M.C.# e.4.m.D.).~.!.Z.3.#.#.3.4.+.+.o +.4.V.V.3.p.G.Y.Z.G.Z.4.=.#.@.# w.1.4.V./.^.~.G.N.G.;.$.$.w.*.# ",
"J J E X.-.} E ) { } [ ....X.&.; *.] [ } 0.q.t.-.] E R R ( E ( @ { [ ..| ` E X.X.X.] ( | R Y ..= ..J | X.8.0.2.[ | | f J L } 0.# ",
"J J K Q ] T d d J E ~ ~ ^ [ X.o { ] ~ [ [ Q [ G d J Y Y Y E ..@ :.| Q Y E J E J K E E J d s ] o ( f s J [  . . .] Y G G J Q X.X ",
"] ( X.X.( P J T P ] ..@.*.2.2.+ @...X.&.X.X.( d g E ( E ) ) 2.@ ..+.[ ....[ X. .( ] X.X.( ) @.@ +.' ` R | :.X. .X.E ( ( X.@.+.  ",
"o o # o     O +   @ # # # # + @ # # # # @ @ O     @ @ # < ; # @ O O # $ # # , , @ # # @ o @ # o # @ # @ @ # @ O o #   @ # @ o . ",
"H.Y.$X$XR.x.G.X d.K.$X*X&X X*XjXjX3X&X|.h.U.a.X Z.R.R.&X> 1 %X&X&X&X4XdX*X/., 1 1 /.#Xn.#X5XgXrX&X&X5X#XR.U.Z.. Z.T.$X*X3X$XU.Z.",
"Z.Q.$X4X@XU.K.o K.K.#XrXeXXXeXBXvXuXeX}.z.R.f.@ P.W.&XeX1 +X+XiXxXxXpXtXrX3 Y.# 1 , b.oX;XgXpXpXiXeXrXeX@XR.K.+ Z.R.$X&X4X4XR.Z.",
"$.p.K.U.P.Z.A.; V.d.P.@Xc.n.&XdX5X&X Xb.K.Z.3.# V.U.U.R.; ].[.*X5X&X*X%X; 1 A.# A.1 3 1 W.rXrXaXaX:X$X9XE.G.A.# A.d.K.v.W.Y.B.w.",
"X.) $.m.m.t.C.1 @.+.p.6.3.p.Z.A.p.f.Y.A.A.1.) # 2.2.6.p.; ; a.Z.p.> ; , , 4.+.@ w.4.1.p.2 3 1 > 1 3 ; 3 3 m.C.# w.$.=.+.$.M.t.q.",
"] ( (  .} ] ) $ ..X.:.....X.2...R [ :...| E R   R R ` | X.: % & R ; J L [ ....@ ] ) ]  .X.0.X.; 1 ..| ..E 0.e.; 0.] ] E ] X.X.] ",
"] Q P Q P E 0.; ..8. .[ ~ E J s j Y W ~ W x R   / ]  .z u # # i k u Y G J ( | . ( E Y  .] E 1 2 P Q E  .]  .*.# X.Q Q Q P I P I ",
"&.X.} { ( | w.; 0.w.q.0...| E Y E .. .:...` ..# 4.2...( z 8 x l l < ( R x ' ..+ 2.0...&...( 3 L P X.:.0.*.{ ..@ 2.@.0.X.} ] P E ",
"- # # # @ @ # & # @ * ; # # # @ @ @ @ @ - # # # & # @ .   o @   O   .   O + @ @ # * @ # # + 3     # # # # # . O # - ; @ # * @ @ ",
"/.A D r ; 3 5XhXaX&XdXdX3XP.N.# Y.E.b.n.|.}.5X*XaX5XD F F x.B O ; ; ;  X&X X&X&X*X*XrX*X9XU.N.@ i.x.$XdXdXhXdXaXkXLXGX9XB n 3 1 ",
"7 , 2 2 > , 1 ; ; 3 ; hX*XU.K.# ~.$X&X&XXX.XXXXXuXjXrX&XF m h.o s.x.> ; uX.X+X;XeXeXuXtXdXE.T.@ p.U.9XgXvXKXKXCXVXPXNX9Xr t 3 3 ",
"; ; K.b.$X9X&X#X#XaX; ; 1 < & > J.<X8X7X@Xb.c.|.#X&X#X& E.; C # p.f.x.< 1 ; |. X&X&X#X*XQ.d.4.X p.U.E.$X9XhXkXdX5XfXfX#XZ.N.3 , ",
"X...m.A.G.!.N.;.V.G.~.).M.4.2.; S.C.D.I.a b Z.A.Z.; > p.1.4.' @ w.w.1.3.p.; 1 > ; 5.#.V.1.' _ o $.4.w.L.Z.Y.~.!.Z.A.V.4.m.w.@.# ",
"( ]  . . .) ] ( L X.0.0.8. .` # r.0.X.[ ) ; , < - < / W Y _ / # X.X.` / R ` ....= 2 3 E ( ] { o { T ~ ..) E ] ..X.{ ( X... .[ . ",
"J f J E ! Y f K s E ] ! [ [ { % X...] Y g E ! Y ; h x J j J E @ ` ` E Y Y Y Y E E s > ; j T ( @ { [ W E Q K J P I K G s J [ ..@ ",
"..{ X.X...| J L J ` [ ..0.w.w.# @...0...Y W X.| ; ` ` R v _ ' + 1.' { ` c R x W ` R ( ; j / ..@ 4.w...| ..] E E E ] X.{ X.*.t.# ",
"# % % # & # @   o + + @ = ; ; # # # * #   @ # # 1 # # +     + # @ # @   + @ # @ @ # @ .     o X # % # o # # # . X @ $ $ $ % % # ",
"H./.wXfX3X=XG.@ Z.P.$XqXhXdXgXhXrXaX*X@Xb.K.5.; ; W.@X|.'.7.XXXX].j.l.|.%Xv.f.. i.x.b.|.%X%X%X X X*X#X%X@XU.L.@ Z.T.$XrXkXfX7X/.",
"H./.fXdX5XQ.Y.+ K.W.4XdXuX&XyXmXeXeXeXXXh.x.i., P.E.%X.XXX{.OXOX`._.`.;X*XR.s.O s.x.@X+XuXyX+X.XoXgXxX[.#XE.U.# Y.Q.aXhXzXfX=X~.",
"4.Y.6X>XE.Y.V.# A.,X/.*X*X&X@X&XaXaX3Xb.s.i.3.< d.Y.z.7.l.c.'.l.k.k.l.b.x.g.o.O O.,.x.#X@X].[.].@XrX$X@XQ.Y.Z.# ~./.U.=XwX=XH.m.",
"@.' 1.m.M.m.1.* +.m.I.L.Z.Z.p.p.i.Z.!.Z.5.4.; @ 6.6.1.N o.o.>.>.o.N >.>.' 1.' # +.1.p.p.d.Z.N.N.Y.~.L.Z.M.w.w.% e.m.m.4.p.m.w.w.",
"~ ] ~ ` | ( R $ ( X.9.0...| ....E ` [ | , 1 ; ; :._ x v x ` v v M M R | ` / M @ ` Y Y ` | 2.2.X...0.:.X.q.0.0.; q.:.~ ] ] ] [ ] ",
"R E Y J T g j # R E ]  .E J J T g Y , , ; R | * :.R x Y j g z s j s x W W R ` # _ x J E  .:.^ ~ ~ ~ Q !  .2 9 w *.X.P T K P E g ",
"E ) ( { X.) / . ' ` X.X...E E E ; ; ( ` ) _ ..@ ' ' ' ..W v x Y x h c ` ' 2.1.@ _ ` { ..:.| ..%.X.:.E ) 8.9 w # 4...) ] ( {  .E ",
"o # o # % $ @ .     # # # #   3 1 # @     O #   O @ # = *   @ # O   @ # # & *       - # @ @ # & # # @ @ # ; ; # @ + @ @ # * # & ",
"p.Q.W.@X%X5XgXdX&X%X5X&XR.v.i., U.R.x.j.l.}. XXXc.'. X#X@Xz.g.o ,.s.@X*X5XrXjX@X}. XjX*Xv.< , ; 7X>X$X*XhXdXrX5X&X@X&X9X$XZ.V.# ",
"p.E.qXeXiXMXmXvXeXeX;X Xc.x.f.; Z.E.|.}.XXiX+X`._..X+XXXb.c.5.O g.b.&XyXuXBXmXxXrXiXpXhXc.x.~.3 (.=X$XlXMXuX&XeXpXiX5XrXdXT.A.= ",
"m.Y.x.E.5X5XfX5X|.%X#XP.u.i.V.2 L.Y.z.z.|.5X X|.XX&X5X*XE.U.5.  p.U.x.z.b.5XaX&X*XhXfX9XY.Y.Z.# !.T.U.6XfX5X#X4X*XaX9X*XK.H.C.# ",
"*.w.4.V.A.Z.~.~.A.p.p.4.O.+.w.3 2.w.m.Z.Z.G.~.U.U.G.p.5.1.4.+.  _ +.6.4.i.3 9 N.N.Z.V.p.O.+.@.% S.C.w.m.!.!.T.J.~.).J.A.w.@.@.# ",
"*.] ( X.X.[ ..X...` ( | | | ..3 / ) ..:.:...:.:.+.` ( R Y ` ` X ( T R 2 1 ; ` ) ` ) ` E g E ( o 0.r.&.] X.X.] ] X.q.0.X.] [ X.# ",
"X.[ Q ! ] ~ E ~ E K J Q Q | ; + g E  .&.T Y E E W Y J Y Y ( | @ | ( T > 1 E E T J E Q T J Q X.# 8.0.&.E ~ Q K J P ] ] ! E } X.# ",
"X.X.X.&.X.] { ..@.] ( | 3 3 3 O / { X.0.2.| E ( E | ` ..` ....# 3 w 3 5 | ` 0.X.) X.*.X...*.t.& w.0.r.8.X.} ] E ] X.X.X.-.0.w.@ ",
"# @ # # @ @ # # - # + @ o # # O     @ $ ; ; @ # @ # # ; # @ O @ @ o # @ @ * * @ + # # * @ # @ # # # % ; % * # # $ # # @ * # # @ ",
"A.Y.$X9XdXqXdXaXaX*X&X#X*X*X4X&X%X@X X%XwX8XY.# B V k.`.S 7 %X X X*XaX5X&X3XfX%X#XdXfXfXfXdXrXrX9X4X&X5XwX=X^.# Y./.6X$X*X3X6X/.",
"A.K.3XvXlXPXKXMX:XoXeXiXiXpXmXyXuXiX+XXX#X$XY.@ h.F e y NXeXpXpXuXpXrX:XpXvXpXgXgXmXNXmXhXlXuXpXgXrXeX%X#XU.G.# Z.E.*X XrXdX7X1X",
"4.p.Q.6XqXqX3X@X|.&X$X*X9X5X X; rX@X|.b.K.Z.A.  Z h.k.wXkXfXzXrX5XrX*X&XsXhXfX&X#X:XfXsX*XjX9X3X4X*X#Xb.T.Y.!.# m.Y.U.x.$X/.).M.",
"] { m.M.G.H.m.p.; ; ; ; < ; - ; ; N.d.Z.V.1.4.q r M.D.~.D.~.1X).G.Y.Y.A.!.; 3 3 w w w ~.N.Z.Y.).A.Z.V.m.4.w.0.% 4.w.+.@.M.m.0.X.",
"f ( } } | [ & ; ; X. .] | ..( ( ; ; [ :.:.| | q 0.X. .X.[ X.0.X.{ [ X.[ X...*.e.r.q.3 ; ; ; X.X.} | ] ( ] } :.# *.[ f Q X.] ] ] ",
"s Q Q K H K Y H ! E K J J H s G U ; T T Q | [ - &.~ K G K K Y ! E T Y P T I Q %.%.^ ] ! Q ; ; ; ; ; ; ; T ! ; * &.Q d I Q T K P ",
". $ $ o # o + @   * +   + @ . O   = * @ * = = = = # # @ # + # = # + @ o & # * = ; $ # # # % & & # o o ; ; ; ; # ; ; O $ $ # @ @ "
};
