/* XPM */
static char *_____________[] = {
/* columns rows colors chars-per-pixel */
"64 64 192 2",
"   c #060606",
".  c #080606",
"X  c #060906",
"o  c #090906",
"O  c #060709",
"+  c #090709",
"@  c #070909",
"#  c #0B0B0B",
"$  c #100D0E",
"%  c #0E100E",
"&  c #11100E",
"*  c #0E0E11",
"=  c #110F11",
"-  c #0F1111",
";  c #121212",
":  c #181715",
">  c #171518",
",  c #7B2703",
"<  c #7E2C07",
"1  c #7E2B09",
"2  c #7B3207",
"3  c #7E350C",
"4  c #812D06",
"5  c #812E0A",
"6  c #85330C",
"7  c #8B350D",
"8  c #863B0C",
"9  c #8C3A0E",
"0  c #90360F",
"q  c #923B0F",
"w  c #8C3510",
"e  c #873C12",
"r  c #8C3B11",
"t  c #933D13",
"y  c #9A3E14",
"u  c #973D18",
"i  c #9C3F18",
"p  c #8E4213",
"a  c #8C4B16",
"s  c #944315",
"d  c #9A4316",
"f  c #954916",
"g  c #9A4916",
"h  c #954518",
"j  c #9B4419",
"k  c #964B19",
"l  c #9C4C1B",
"z  c #9B5017",
"x  c #96541C",
"c  c #9D531C",
"v  c #94581C",
"b  c #9C5A1E",
"n  c #A04D17",
"m  c #A2451A",
"M  c #A24D1D",
"N  c #A94B1D",
"B  c #A3521E",
"V  c #A9541F",
"C  c #A1591E",
"Z  c #9B621F",
"A  c #9E5421",
"S  c #9C5C21",
"D  c #A24E21",
"F  c #A94D20",
"G  c #A55321",
"H  c #AA5422",
"J  c #A55D23",
"K  c #AB5B24",
"L  c #AB5D29",
"P  c #B05622",
"I  c #B15C26",
"U  c #B45C28",
"Y  c #9E6323",
"T  c #9F672A",
"R  c #9B6A2B",
"E  c #956A37",
"W  c #9D6E35",
"Q  c #9E723C",
"!  c #A46425",
"~  c #AA6326",
"^  c #A56927",
"/  c #AA6B26",
"(  c #A56628",
")  c #AB6529",
"_  c #A56B2A",
"`  c #AB6D2B",
"'  c #B26326",
"]  c #B06D26",
"[  c #B2652A",
"{  c #B36C2D",
"}  c #B86B2C",
"|  c #A7702E",
" . c #AD722D",
".. c #B2732E",
"X. c #B4782E",
"o. c #A36F33",
"O. c #AA6E32",
"+. c #B26E31",
"@. c #BB6C31",
"#. c #A47235",
"$. c #AC7433",
"%. c #AF7936",
"&. c #A4753B",
"*. c #AB763A",
"=. c #A6783D",
"-. c #AD7A3A",
";. c #B27532",
":. c #BA7632",
">. c #B57A33",
",. c #BA7B34",
"<. c #B27C3C",
"1. c #B97E39",
"2. c #C07C36",
"3. c #9E7441",
"4. c #9E7847",
"5. c #997749",
"6. c #9F7B4C",
"7. c #A37743",
"8. c #A57A45",
"9. c #AB7D45",
"0. c #A47C4B",
"q. c #AA7E4A",
"w. c #B17F44",
"e. c #A37F52",
"r. c #BD8037",
"t. c #B4803F",
"y. c #BC813B",
"u. c #C2833B",
"i. c #C3883C",
"p. c #C98B3E",
"a. c #AC8146",
"s. c #AD814B",
"d. c #B58244",
"f. c #BB8443",
"g. c #BD8947",
"h. c #B3844C",
"j. c #BA874C",
"k. c #B6894E",
"l. c #BB8A4D",
"z. c #A58253",
"x. c #AB8553",
"c. c #AD8954",
"v. c #A5845B",
"b. c #AB8659",
"n. c #A6895F",
"m. c #AE8A5C",
"M. c #B38651",
"N. c #BB8750",
"B. c #B58953",
"V. c #BA8C54",
"C. c #B38D5C",
"Z. c #BB8D59",
"A. c #BE9156",
"S. c #B5915D",
"D. c #BD915B",
"F. c #AD8C62",
"G. c #B28E62",
"H. c #B88F63",
"J. c #B38F69",
"K. c #AC9069",
"L. c #B59263",
"P. c #BB9464",
"I. c #BE9A64",
"U. c #B4936A",
"Y. c #BA966B",
"T. c #B7986C",
"R. c #BD9B6B",
"E. c #BD9C73",
"W. c #BD9F79",
"Q. c #C38741",
"!. c #C58942",
"~. c #C88A41",
"^. c #C38C4A",
"/. c #CA8E48",
"(. c #C1904E",
"). c #C18F53",
"_. c #C29355",
"`. c #C89657",
"'. c #C2945B",
"]. c #C4995E",
"[. c #C9995E",
"{. c #C39662",
"}. c #C29964",
"|. c #C89961",
" X c #C39C6B",
".X c #C29F77",
"XX c #C6A16E",
"oX c #C9A46F",
"OX c #C1A075",
"+X c #CAA372",
"@X c #C4A47B",
"#X c #CBA67A",
/* pixels */
"@ O # # ; ; > #     + # # # ; # # # @   # = @ o # ; ; ; ; @ $ # # # # . # * # # % - ; ; - - # # # # @ @ @ o # # @ + O O @ % & > ",
"-.7.G.U.T.T.K.F.n.F.K.G.H.C.s.$ Z.x.b.F.U.U.E.n.L.E.@X#X XP.].# B.C.C.F.OX.XE.F.n.L.W.T.m.Z.B.# k.c.b.v.J.U.Y.Y.F.U.F.e.m.C.h.# ",
"^ W x.C.m.F.b.z.m.K.G.C.x.d.*.@ f.w.x.L.T.m.L.v.m.Y.E. XS.N./.# -.h.B.m.Y.Y.E. XY.Y.Y.P.s.9.d.o -.9.s.v.G.G.U.L.F.J.e.0.s.d.;.@ ",
"a _ %.9.q.q.s.q.V.M.h.q.%.;.! @ ;.;.<.^.'.B.M.B.V.V.h.h.%.>.:.# ` ;.w.w.s.B.V.[.|.D._.).-.| { $ | _ %.9.q.B.B.B.V.s.E 8.<. .C @ ",
"8 ! ~ ` ` ^ ` ` ,...` ! ! J c O J J ) ..:.u.,.u.i.>...! J J J # J J ~ / :.X.,.i.p.u.,.:.[ J ~ - C c J Y ` ;...:.u. .x ;.` G k # ",
"p D N l l s f f d k f s s s k O p k l M n L V K H G l d s s G ; G j s l H B H I I G M M M B L - k s t r l l M G L H s G M k j . ",
"s d N d d u t m 6 t 6 9 q s H @ r p j N d y m m d y d m t t K ; I l r 6 y m m m m y s y m l V # l s s 9 j M d j N N t y m m l # ",
"s h l K K F l j s r r r f B L # B l B B l d M M G M B K l c [ ; } L M k l B N M G P K M B z B @ J H G l l l d N H H s s c L } ; ",
"# # # @ # . # @ # # # # o # # = # # # # > X ; & $ & ; - * # ; ; # . . @ O # ; ; % - - # # o # # # = *     # * ; : ; # # # @ @ . ",
" .#.#.Q &.*.$.# ,.<.h.V.Z.V.h.B.x.s.q.s.h.t.1.@ 1.^.V.k.q.M.V.B.V.V.M.q.Q %.u.& ;.$.9.h.k.s.M.V.A.A.V.B.-.%.1.: i.^.9.9.7.Q #.$.",
"` #.7.7.q.t.>.* y.d.a.C.G.C.G.L.S.b.0.0.h.j...o ;.^.B.s.b.z.x.G.Y.}.C.x.Q t.u.= ` #.8.0.z.z.C.L.P.P.I.D.B.d.i.> !.l.q.q.0.7.%.>.",
"! ;.<.d.f.r.` $ X.$.%.d.w.q.k.B.V.z.3.-.1.1./   ` r.%.&.q.q.8.h.V.B.9.=.#.:.1.- ` | *.=.7.q.B.M.x.q.d.8.-.u.u.; 2.,.<.d.d.<.1.{ ",
"B K } } } { K $ J x J { ` `  .{ ;.` ` / { ` K . J ~ ) ) ....` _  .` ` ) ~ ) [ % L ! ` ~ ..r.:. ./ ^ ! v S ! } > ' ~ ~ { :.+.} K ",
"s s l c B H L & G 9 s k h f k f g k l M F I K @ l G H H B l k t s l B V H B B = H D s t V I B k k M f 9 e s H ; H M p s l M N V ",
"d j d u m F G @ l t s t q u t w q y u s y j B @ g l M y 7 < t 4 6 d N N N G G & K d 4 6 9 N N d y u s t 6 w F ; ' M q d y s d N ",
"M G G B l l b % [ G h s l G d j M M k l H J J # L H H H G s s u f M H H I G L $ } L l s D B N d h M l l s k ) : { B B B B M s 9 ",
"# ; $ # # # @ # % % # # & $ . O # # @ @ # * # # # # # # = & # @ @ ; & % - # # - * ; = @ @ # # ; ; # @ # O . @ - # @ * ; # * # # ",
"1.^.l.k.Z.B.s.s.s.Z.C.N.k.t.^ o  .<.9.8.h.V.Z.C.V.k.0.8.h.Q.1.@ $.<.l.V.q.h.B.B.B.M.s.a.w.<.>.; i.f.h.].V.B.B.s.q.a.A.'.V.1.O.# ",
">.g.V.S.P.H.b.b.b.c.C.C.V.f.;.@ %.9.9.s.x.G.}.P.L.m.z.0.h.f.;.  | <.k.M.z.b.m.G.C.C.b.x.q.d.>.- !.^.N. X XP.P.C.b.C.L.{.l.d.:.# ",
"~ ..<.g.V.B.7.q.V.9.9.d.t.u.,.# ..>.*.9.s.B.V.B.s.8.&.Q %.$.! O ! ;.d.-.7.0.h.a.s.h.d.9.*.>.` # :.1.f.^.].A.'.A.x.V.h.d.t.:.{ # ",
"f x J { :...^ ! ,.$.` ~ ~ [ [ # J B ! { :.r.X...Z Y b T J A B @ c ! } ^ S ` ;.;. . . .! ! J B # J b ! } u.u.u.>. .X.^ J C J H # ",
"6 6 p l V l p f l g j k l l G ; B f s l B V K B s p p p j f f @ l D G l f s B G M k d k r e l - z 9 h G H K H j k k 3 9 p l B # ",
"6 6 w t u r < 1 7 y y d j l M X k d y d d d j 5 < 6 q t t d D # M M u t t 9 y 9 w y d 7 1 8 g # h 6 3 6 m m N M m t 6 5 9 s l o ",
"f s M l f p 6 r q k c B H H J @ J B B M M l j 6 7 s f f k k K # C c B M D m M M d k M M s f J # c l h p g G F M M s f p M B c   ",
"@   # #       .   @ # # # # # # # % # # O @ .     o # o # @ # @ . @ # # # # $ # # # % X @ @ # @ # # # o # * # @ . # o @ # + . . ",
"$.%.a.q.=.O.$.. ^ *.d.V.h.q.M.Z.Z.B.k.8.Q <.| # %.w.j.k.A.h.x.B.M.B.V.'.V.Q.>.# ;.d.d.Q q.B.Z.Z.M.a.B.s.-.%.` . _ w.w.q.k.9.#.| ",
" .*.s.s.8.#.;.o #.%.h.C.m.e.G. XI.H.C.0.3.-.%.# <.f.j.C.P.m.b.P. X XP.D.V.^.<.# ;.-.7.q.x.L.P.P.L.b.C.B.0.-.O.. | *.a.x.x.q.#.` ",
"b ^ $.-.*.$.;.; { O.%.9.=.7.B.].Z.k.s.9.-...! # ..,.<.d.9.0.q.B.Z.V.N.h.f.2.;.$ ..$.o.h.a.V.B.V.Z.B.k.l.-.$. .# {  .#.#.=.%.` ! ",
"z f S ~ ` ~ } : J C ) ` ! ^ ....^  .:.,.:.J k # J ~ ` } ..^  .;.` ^ ` ` ..~ B @ J ) b `  .r.u.r.,.;.;...J ) } * ~ b J b ! K K J ",
"s p s N l s k ; M B H N M G K B s M K F m s s X p s l M G K M f p p r 8 M M l o M k d l n H M l l l l l y V U ; G d s s f M l f ",
"s u r t 9 t H ; M H N m d s 7 6 6 t d j d r s @ f j m y 9 9 u q 7 7 r 6 6 d k @ d s 0 D M y u y q q t M j M G # M s t t 9 t 9 q ",
"G l k f s g ) ; J I ' K B l s t s M B G H k c # ' H c f s s s r p d f p p k B # J G M G l s s 9 t M B K G g x X G B G M k d 9 w ",
"& # # # @ . # ; # # & ; # * # # # # @ . * # # # # # X X   @ O   @ @ X X @ @ # # # # # # # .       @ # ; # # . @ # = - @ * # o + ",
"u.<.k.V.B.s.k.Z.Z.h.Z.'.j.-.$.# y.<.-.7.q.8.B.s.M.s.8.&.Q t. .. ^ #.*.s.V.q.s.M.x.h.V.B.l.<.` . Y #.d.Z.'.'.Z.B.D.[.'.k.j.t.} o ",
"u.>.h.B.L.H.C.G.C.L.}.}.B.*.;.# ,.d.B.M.e.5.6.e.m.C.b.z.9.g.1.X | *.q.C.P.e.b.C.C.G.D.P.'.d.<.# _ *.A.D.P. X+X X XoX XM.h.<.;.@ ",
"{ ^ o.&.q.k.s.s.s.B._.k.<.;.,.# ;.r.g.h.4.Q Q 9.h.V.j.h.f.,...# ` >.<.d.k.q.q.s.M.s.d.k.f.` ! O ! ;.<.a.V.'.].V.M.Z.A.=.#.! ! # ",
"f x ~ `  ...` Y ^ >.,.2.} J J # [ ) { +. .;.{ 1.;.X. .^ ! { B # ~ [ ~ ! ` ! ! ` ` ! Y / J x f o ! ! ~ ;. .:.1.>.` $.^ ! ~ C B # ",
"s h h l j f k s e l H P B B h @ K K M M k M B l s s g l s l k # G B k g f l G B k p 8 f s M k # k t s l f p f l M k s l k j d o ",
"7 6 w y y 9 5 w 5 y j d m d l * B l y q 9 y d y 7 t t t w t k # M l u u u s t d y 6 6 7 6 t g @ l M d y u 7 9 r t w 6 4 8 s l o ",
"l k l l M l 9 e 7 s l M K L K = J B H M p j V M M M k s p x H # L H M s s h t l M j h s 8 a A @ J [ B d D d s r t s l f l G K # ",
"# ; - # & $   X @ @ o # & ; * * @ # * # X # # - - - # .     # # o @ # @ @ # # # # # # @   O @ # @ * # # # # @ o O # # ; & # ; # ",
":.t._._.k.f....  .*.w.Z.'.).'.D.V.V.k.s.8.,.T * u.^.k.V.q.Q V.C.s.8.q.j.(.t.>.o ` %.w.s.M.h.s.s.x.M.h.q.9.>.$.o $.<.d.B.'._.f.r.",
"X.f.A.A.k.f.<.o ` w.M.A.C.b.C.I.m.c.m.s.Q &._ @ y.^.V.B.C.B.G.C.v.0.x.S.|.f.$.. o.-.s.C.P.L.z.z.x.P.P.8.s.-.$.#  .w.V.S.}.N.f.1.",
"! ;.g.f.<.;.` # ;.i.g.h.M.q.q.h.V.Z.N.9.R ` ^ O :.Q.-.W 9.s.s.0.8.8.a.l.w.>.S @ Y ^ %.j.h.0.7.7.h.Z.d.9.d.>.{ $ 1.r.*.d.).f.;.~ ",
"B k J ( ..[ G ; A [ :.:...$.^ ) Y >.2.;.) ) ' # { { ~ v Y ^ ! Y ! Y ! ! ! [ K # J J ` { ` ;.` ..:.u.X.;.[ ) ~ = ' ~ ~ b ! ~ ) K ",
"j f s d l f p * f M H P M k l M s s M M l B U ; K M s u p G j f f f k G B g f # l s q M B H K B B H G B P P K $ I G h f k j l d ",
"s s 0 t y 8 6 # f d j M u 7 9 q 7 9 d y j d M ; H l u d q s 9 9 t 0 s m M M l # l s r j N N N m i d t d N N G - B l q y 0 q t 6 ",
"f h f z G k a   k k G H l f s d d k k l c k B # J B B K M u d l s s f F G I ~ . c k G M B B V M M M s g G [ [ = J l f f s l l t ",
"O # # # * % o @ . @ * % @ #   @ - # O       # @ X @ # ; $ o # # . . @ # $ : ; @   X = = # @ ; ; ; * # O # ; ; ; X   O @ @ # # & ",
"_ t.d.9.s.V.].D.B.q.B.h.9.%._ . r.<.=.Q 3.q.B.x.q.q.B.V.).*...# _ #.k.'.A.].{.s.q.h.'.k.&.d.r.; i.Q.d.h.'.B.B.B.q.0.s.k.h.$.) * ",
"^ <.V.B.C. X XR.b.C.x.q.8.#.| # >.d.q.8.b. XC.z.5.b.S.B.h.w.` O %.d.V.D.P.XX+X XP.P.I.}.Q *.1.- Q.d.q.P. Xm.e.b.L.G.z.B.V.t. .; ",
"` ;.$.a.k.V.].V.q.q.h.*.R ! ..; :.1.*.*.a.D.a.h.M.N._._.g.y.`   { y.<.=.q.A.'.M.Z.'.[.l.-.,. .# :.,.<.j._.h.q.s.h.h.k.h.$...[ # ",
"G J J ` ....>.r...^ ^ ( c S ' $ K [ { :...1./.2.u.,...! ~ ~ C @ l A ) ) ^ >.:.....$.| / c c J - @.[ ~ ` :...,.>.:.,.:...! G c # ",
"G l d l M l M G c s h f k l D . f l V G H M K K K l k h r l l . f f p p l k k g s f d s 6 p p # H L M s M B g f M K B g s l M @ ",
"M d u d d u t u u w r y u d g   9 f j N d y y y d q 0 q r l f # k d t t d y u y r t y t r s l # M G N u u s 7 6 9 m d m y k G # ",
"M M M B M f k c B k s f z G c @ a l B V V l f j s l M B B G A @ V k B l l g G k d l G B l B ) % ~ K I G l l s t j l l M B H J @ ",
"# # # # # @ @ * ; # @ @ @ + # .   . # * ; & # # @ # & : * #   O X @ # # @ # & @ X # % ; @ # # # # @ % ; & # # # # # # @ $ # # o ",
"..%.9.k.N.k.V.B.V.h.q.s.k.B.B.M.M.s.s.h.`.l.>.@  .%.d.Z.h.q.q.q.q.h.V.M.s.k.Z.q.9.V.V.A.'.Z.B.M.k.s.s.M.l.f.1.# >.t.d.9.9.h.d.1.",
"` _ h.C.P.XX X}.z.e.b.C.C.P. XH.G.C.b.x.k.f.%.@ r.^.'.{.I.b.L.L.m.C.S.b.C.P.S.P.P.Y. X}.P.P.C.C.L.m.b.0.q.*.$.@ O.*.s.4.B.V.f.u.",
"b T >.h.k.B.M.8.7.q.s.h.M.V.q.B.Z.h.8.-.;.<.:.  / t.^.`.].B.].M.M.B.s.s.D.'.).q.q.M.A.V.q.N.V.B.h.q.9.&.<.X.;.# ^ $.$.Q q.<.,.] ",
"a f ! ` `  .^ ! ` ;. ..... .`  .,. .` ;.{ S J . J ~ ..2...,.i.,.X.;... .>.,.u.1.:.1.,.1.^ ` :.>...` ^ ! ! V ~ # J L x b ~ ~ G c ",
"3 r d d j s k f B M l l k l f f M M l H G M M * H M l g l M H M l l M j l l B U U P H K l s c M k j k d s l M # G k 2 t j h p h ",
"< u q 0 7 7 7 7 y 0 w 7 7 w 7 5 w 0 t y y m N % F d 0 7 7 0 0 y t 9 0 t y t y N N m d y d q y y 0 5 7 5 0 u d # N t , t 0 w w 9 ",
"X ; = @ . . . * O # . . . # + @ . + + # * ; ; ; = $ + . @ . @ = $ @   # $ # $ ; ; = # # ; # ; $ # o +   @ $ # % ; ; @ # ; # @ @ "
};
