/* XPM */
static char *_____________[] = {
/* columns rows colors chars-per-pixel */
"64 64 256 2",
"   c #000001",
".  c #080607",
"X  c #0E100F",
"o  c #0E0F10",
"O  c #1D1D1F",
"+  c #000C3E",
"@  c #242627",
"#  c #2D2E30",
"$  c #4E3624",
"%  c #4D3923",
"&  c #533C26",
"*  c #543C29",
"=  c #5A3E29",
"-  c #593F26",
";  c #59402A",
":  c #534233",
">  c #594335",
",  c #5B4F3F",
"<  c #64462E",
"1  c #664A33",
"2  c #6B4B32",
"3  c #634E3D",
"4  c #614635",
"5  c #6F5033",
"6  c #755235",
"7  c #7B5639",
"8  c #7F5A3C",
"9  c #010C42",
"0  c #000E4B",
"q  c #00104D",
"w  c #0B1549",
"e  c #0B1646",
"r  c #141D4A",
"t  c #000F52",
"y  c #001155",
"u  c #0C1957",
"i  c #00125D",
"p  c #0C1A5A",
"a  c #0C1755",
"s  c #141F57",
"d  c #1A2251",
"f  c #1B2656",
"g  c #252D5A",
"h  c #31365E",
"j  c #2B345F",
"k  c #011262",
"l  c #00146B",
"z  c #0C1C68",
"x  c #001672",
"c  c #001874",
"v  c #01167B",
"b  c #00197D",
"n  c #102169",
"m  c #0C227D",
"M  c #152678",
"N  c #383E62",
"B  c #333D61",
"V  c #303B70",
"C  c #3E4265",
"Z  c #334377",
"A  c #454448",
"S  c #5E4C40",
"D  c #4B4C50",
"F  c #555459",
"G  c #644E40",
"H  c #6C5C4C",
"J  c #685647",
"K  c #765C44",
"L  c #6A5D52",
"P  c #7A624D",
"I  c #7E6655",
"U  c #7D6A5C",
"Y  c #75655C",
"T  c #454D6D",
"R  c #48527A",
"E  c #505572",
"W  c #5E5B62",
"Q  c #68676D",
"!  c #796B62",
"~  c #63677D",
"^  c #797677",
"/  c #815A3B",
"(  c #825A37",
")  c #87603F",
"_  c #815C40",
"`  c #8C6140",
"'  c #8B674D",
"]  c #9E6F4C",
"[  c #966946",
"{  c #9A714E",
"}  c #816756",
"|  c #8A6E58",
" . c #9B6F51",
".. c #9B7251",
"X. c #99785D",
"o. c #A3744C",
"O. c #AF7C4F",
"+. c #AD7A51",
"@. c #A77956",
"#. c #B57E51",
"$. c #887669",
"%. c #997C62",
"&. c #837873",
"*. c #8A7A71",
"=. c #877D79",
"-. c #A37E61",
";. c #AF855F",
":. c #B58154",
">. c #BC8559",
",. c #8A817C",
"<. c #9C8373",
"1. c #BA8B67",
"2. c #BA926F",
"3. c #A3887A",
"4. c #BE9371",
"5. c #C68C5D",
"6. c #C98C5D",
"7. c #C18759",
"8. c #D5945F",
"9. c #C58D61",
"0. c #CC9162",
"q. c #C99468",
"w. c #D39562",
"e. c #DC9C66",
"r. c #DF9D69",
"t. c #D49969",
"y. c #C49975",
"u. c #C99C7B",
"i. c #E29F69",
"p. c #CFA17E",
"a. c #DDA071",
"s. c #E6A46C",
"d. c #EAA56D",
"f. c #E6A571",
"g. c #E9A671",
"h. c #E7A874",
"j. c #E4A977",
"k. c #011982",
"l. c #081F84",
"z. c #061C87",
"x. c #0B2286",
"c. c #0C2489",
"v. c #072188",
"b. c #11268B",
"n. c #142A8C",
"m. c #1A2E8E",
"M. c #162A86",
"N. c #1C318E",
"B. c #162E90",
"V. c #1A2E90",
"C. c #1C3391",
"Z. c #1F3894",
"A. c #22358C",
"S. c #24388C",
"D. c #273989",
"F. c #213693",
"G. c #243A95",
"H. c #2A3D94",
"J. c #2A3E99",
"K. c #263B98",
"L. c #36468E",
"P. c #2C4196",
"I. c #2D429A",
"U. c #334596",
"Y. c #32469A",
"T. c #35499B",
"R. c #3A4C9C",
"E. c #3B4C94",
"W. c #3F529E",
"Q. c #3A4CA2",
"!. c #3F51A3",
"~. c #4A5589",
"^. c #485285",
"/. c #47569A",
"(. c #505C93",
"). c #5C6181",
"_. c #59649A",
"`. c #646982",
"'. c #61678A",
"]. c #656B89",
"[. c #6D7083",
"{. c #767789",
"}. c #61699D",
"|. c #757995",
" X c #697198",
".X c #4354A2",
"XX c #4659A5",
"oX c #4C5CA5",
"OX c #4C5DA9",
"+X c #505FA0",
"@X c #4F61A9",
"#X c #4F62A6",
"$X c #5464AB",
"%X c #5669AC",
"&X c #5C6BAE",
"*X c #5967A8",
"=X c #5B6CB0",
"-X c #6371AF",
";X c #6D75A3",
":X c #747CAA",
">X c #737CA3",
",X c #616FB2",
"<X c #6573B3",
"1X c #6D7AB4",
"2X c #6A74AC",
"3X c #7E829D",
"4X c #7D81A4",
"5X c #7D84AE",
"6X c #7C83B5",
"7X c #87898D",
"8X c #968D8B",
"9X c #948A85",
"0X c #98938F",
"qX c #848693",
"wX c #8C8B94",
"eX c #8C8E9D",
"rX c #868A96",
"tX c #9E9A9B",
"yX c #969499",
"uX c #A09A9B",
"iX c #B79884",
"pX c #8C8EA7",
"aX c #8287AA",
"sX c #9D9BA1",
"dX c #9696A9",
"fX c #9898B3",
"gX c #A29EA3",
"hX c #A49EA9",
"jX c #A3A1A5",
"kX c #A8A3A5",
"lX c #A6A2AA",
"zX c #A9A4AB",
"xX c #AFA9AD",
"cX c #BAADA6",
"vX c #B4AAAC",
"bX c #BBADA9",
"nX c #B5A6A1",
"mX c #BFB0A9",
"MX c #ABA7B3",
"NX c #B7AEB2",
"BX c #BBB2B1",
"VX c #BBB5B9",
"CX c #C4A38D",
"ZX c #CBA78D",
"AX c #DCAC85",
"SX c #D4AC8B",
"DX c #DBAE8A",
"FX c #DDB18E",
"GX c #C7A892",
"HX c #D3AD93",
"JX c #DDB392",
"KX c #E4B38B",
"LX c #E5B388",
"PX c #C3B3AC",
"IX c #C8B1A1",
"UX c #D0B1A4",
/* pixels */
"        .                             .                                                               .                         ",
"KXKXKXKXKXKXKXKXKXKXKXKXKXKXKX  KXLXKXKXKXKXKXKXKXKXKXKXKXKXKX  KXLXKXLXKXKXKXKXKXLXKXKXKXKXLX  KXKXKXKXKXKXKXKXKXKXKXKXKXKXKX  ",
"w.d.d.g.d.d.d.d.d.d.d.g.d.d.KX  w.d.d.d.d.d.g.d.g.d.d.s.d.d.KX  w.d.d.d.d.d.d.d.d.d.d.d.d.d.LX  w.d.d.d.d.d.d.d.d.d.d.d.d.d.KX  ",
"w.d.g.h.h.h.h.g.g.h.g.g.g.d.KX  w.d.d.d.d.d.d.d.d.d.d.d.d.d.KX  w.g.d.d.d.d.g.d.d.d.d.d.d.d.KX  w.d.d.d.d.g.d.d.d.d.d.d.d.d.KX  ",
"w.d.d.h.g.g.g.g.h.g.j.g.g.g.KX  w.d.d.d.d.d.d.d.d.d.d.s.d.d.KX  w.d.d.d.d.g.d.d.d.d.d.d.d.d.KX  w.d.d.d.s.d.d.d.d.d.d.g.s.d.KX  ",
"w.d.d.d.d.d.d.d.h.g.g.g.h.d.KX  w.d.d.d.d.g.d.d.d.d.d.d.g.d.KX  w.d.d.d.d.d.d.d.d.d.d.d.d.h.KX  w.d.d.d.d.d.d.d.d.d.d.d.d.d.KX  ",
"8.g.d.d.d.d.d.g.g.d.d.d.g.g.KX  8.d.d.d.d.d.d.d.d.d.d.d.d.d.KX  8.d.d.d.d.d.d.d.h.d.d.d.d.d.KX  8.d.d.d.d.d.d.d.g.d.d.d.d.d.KX  ",
"w.w.w.w.w.w.w.w.w.8.w.w.8.w.w.  w.w.w.w.w.w.w.w.w.8.w.w.w.w.w.  w.w.w.w.w.w.w.w.w.8.w.w.w.w.w.  w.w.w.w.w.w.w.w.w.8.w.w.w.w.w.  ",
"                                                                                                                                ",
"KXKXKXKXKXKXKX  KXLXKXKXKXKXKXKXKXKXKXKXKXKXLX  KXKXKXLXKXKXKXKXLXLXKXKXKXKXKX  KXKXKXKXKXKXKXKXKXKXKXKXKXKXKX  KXLXKXKXKXKXKXKX",
"d.d.d.d.d.d.KX  w.d.d.d.d.d.h.d.d.d.d.d.d.d.KX  w.d.d.d.g.d.d.d.g.d.d.g.d.d.KX  w.d.d.d.d.d.d.d.d.d.d.d.d.d.KX  w.d.d.d.d.d.d.d.",
"d.d.d.d.d.d.KX  w.d.d.d.d.d.d.d.d.d.d.d.d.d.KX  w.d.d.d.g.d.d.d.d.d.d.d.d.d.KX  w.d.d.d.d.g.d.d.d.d.d.d.d.d.KX  w.d.d.d.d.d.g.d.",
"d.s.d.g.d.d.KX  w.d.d.d.d.d.d.d.d.d.d.d.d.d.KX  w.d.d.d.d.d.d.g.d.d.d.d.d.d.KX  w.d.d.d.d.d.d.d.d.d.d.g.d.d.KX  w.d.d.d.d.g.d.d.",
"d.d.d.d.d.d.KX. w.d.d.d.d.d.d.d.d.d.d.d.d.h.KX  w.d.d.d.d.d.d.d.d.d.d.d.g.d.KX  w.d.d.d.d.d.d.d.d.d.d.d.d.d.KX. w.d.d.d.d.d.d.d.",
"g.d.d.d.d.d.KX  8.d.d.d.d.d.d.d.h.d.d.d.d.d.KX  8.d.d.d.d.d.d.d.d.d.d.d.d.d.KX  w.d.d.d.d.d.d.d.g.d.d.s.d.d.KX  8.d.d.d.d.d.d.d.",
"w.8.w.w.w.w.w.  w.w.w.w.w.w.w.w.w.w.w.w.w.w.w.  w.w.w.w.w.8.w.w.w.8.w.w.w.w.w.  w.w.w.w.w.w.w.w.w.8.w.w.w.w.w.  w.w.w.w.w.w.w.w.",
"                                                                                                                                ",
"KXKXKXKXKXKXKXKXKXKXKXKXKXLXKX  KXKXKXKXKXKXKXKXKXKXKXKXKXKXKX  KXKXKXKXKXKXKXKXKXKXKXKXKXKXKX  KXKXKXKXKXKXKXKXKXKXKXKXKXKXKX  ",
"w.d.d.s.d.d.d.g.d.d.s.s.g.d.KX  w.d.d.d.d.s.d.d.s.d.d.g.d.d.LX  w.d.s.d.g.d.g.d.d.d.s.s.d.d.LX  w.d.d.d.g.g.s.d.d.d.s.g.g.s.KX  ",
"8.d.d.d.d.g.SXPXPXmXmXcXcXcXBXwXbXbXbXbXbXcXcXbXbXcXbXbXbXbXcX@ #.t.ZXPXPXPXmXcXbXbXbXbXbXbXBXwXvXbXcXcXCXy.0.w.e.s.d.d.g.d.KX  ",
"w.d.d.d.d.SXfX=X%X@X.XR.Y.P.P.P.P.K.P.K.P.P.P.F.N.b.x.m m m U.Q 6 3.5X#X$XoX/.Q.Y.I.P.H.J.P.H.K.F.S.C.m.L. XhX3.+.7.w.s.d.d.LX  ",
"w.g.d.d.g.IX6X<X%X@XXXQ.I.G.G.F.G.K.G.G.G.F.F.C.c.k.b c l x (.D * kX-X%X$XOX!.I.G.F.F.C.G.F.F.F.C.C.n.z.b b M ].9X| o.6.i.s.KX  ",
"w.d.g.d.h.BX1X<X&X$X.XQ.J.G.G.K.H.G.G.G.G.G.C.n.k.c l l l l 3XO > dX&X%X$XOX!.I.C.m.m.B.B.B.F.N.C.B.n.c.b c x k Z tXU ` :.w.AX  ",
"w.8.w.w.u.fX<X=X%XOX!.Y.G.G.G.G.J.G.G.F.Z.C.m.v.b l k i k n sX. L pX=X%X%XXXT.Z.z.v k.k.z.z.l.n.n.m.n.c.b b l l y V sX4 5 ] 5.  ",
"        F :X&XOXXXQ.Y.J.F.F.G.P.J.G.F.Z.m.B.z.v l i t y y Z Q   W ;X=X$X$X.XF.k.c c x l x c b k.k.x.c.b.l.v x k i t R F         ",
"KXKXLXKXVX&XXXR.Y.G.F.m.V.V.G.G.F.F.m.b.x.v v l i 0 9 0 y ).! : kX<X%XOX.XF.k.l i i i i k k l x b k.l.b.b.v x k y t w eX, 3 X.p.",
"d.d.d.j.zXR.I.F.m.b.x.x.b.n.C.V.m.b.x.k.v x k y 0 9 9 9 q rXG G dX$X$X/.H.k.l t 9 9 0 0 0 y i k l c v x.n.z.v l i 0 9 E ! * 7 >.",
"d.d.g.AXpX/.U.F.A.D.A.A.S.D.L.S.l.k.v x l k y 9 + 9 9 9 f gX* U aXoX.XK.l.x t 9 T {.{.{.{.{.{.|.|.'.D.x.m.n.b l i q 9 g 8X& < o.",
"d.d.d.d.PXPXnX^ 9X8X0X8X8X8XqXH.k.v x k i t 9 9 9 9 9 N yXY * ,.}.W.Y.b.v k 9 9 wXJ H H I I } I } $.gX_.G.F.x.x i 0 9 d 0X& < ` ",
"d.d.d.d.d.i.y.  7 / ` %.hX_.M.z.v x l i 0 9 9 9 9 r [.=.G = 1 jXXXT.V.v l 0 9 d gX& & 2 [ #.+.+.+.+.;.vXXXI.N.b k 0 9 r tX& - ) ",
"g.d.d.d.d.d.AX  :.q.CXpXE.C.b.k.v l k t 0 9 + 9 C yX! * ; 2 X.dXR.J.b.c k 0 9 T ^ * = / 7.e.i.e.i.i.i.GX5X/.H.b l 0 + w tX& = / ",
"w.w.w.w.w.w.w.. ZXvX;XU.J.A.b.k.x l i t 0 9 r ~ &., $ = 2 [ iX4XR.H.l.x i 9 + ~ H $ - _ >.w.w.w.w.w.w.GXaXoXJ.v i 0 9 e tX% $ 6 ",
"            . pX|./..XR.P.N.x.c x k i y 0 j rXA             yX/.R.F.k.x i q 9 qXo                     Q :XOXY.k.k 9 + w 7X      ",
"KXKXKXKXLXKXJXMXaX:X>X X}._.(.E.~.~.^.R '.jXL : > K %.y.AXKXVX;X:X}.(.~.^.R ).&.: > P 2.DXKXKX  KXKXUXMX1XOXF.x y 9 + g 0X* >   ",
"w.d.d.d.d.d.g.j.HXCX9X*.*.*.&.F $.*.*.*.} 1 2 2 _ +.w.i.d.d.KXD iX3.*.*.*.*.$.1 1 6 o.8.d.g.KX  w.DXPXaX,XXXM.l t 9 9 N =.* >   ",
"w.g.d.g.d.d.g.g.j.t.>... .{ %.o ' { { ..{ ....@.9.t.f.a.f.j.FXX 9.1.@.] { { .. ...@.0.a.f.s.JX# GXMX6X<X$XJ.v i 9 9 9 [.L * S   ",
"w.g.d.d.SXBXNXvXMXzXzXzXkXzXzXeXsXhXlXhXhXhXhXkXlXzXzXzXzXzXxXeXlXzXzXkXhXhXhXhXlXkXlXzXzXzXlX3X:X=X$X#XT.v.l 0 9 + s tX; * J   ",
"w.s.d.HXfX1X&X*XoXXXR.Y.I.K.P.Z.F.F.F.m.m.m.m.N.A.F.H.P.Y.T.R.U.Y.Y.H.F.F.A.m.m.N.F.F.P.T.Q.!.XXXXXX.XY.x.l t 9 9 + `.U & ; }   ",
"w.d.DXfX<X,X&X$XXXT.H.F.C.m.m.M.n.n.b.b.n.n.n.m.C.N.F.F.K.F.K.F.F.N.C.n.V.n.M.M.B.N.C.G.H.I.Y.T.Q.J.V.v x y 9 + 9 h jX& & 2 X.  ",
"w.q.IX1X,X=X$XXXT.F.m.b.c.c.c.c.x.x.x.x.c.b.c.b.n.n.n.m.n.B.n.b.b.b.c.c.c.c.c.c.c.n.n.B.V.C.C.B.b.k.v l t 9 0 9 d yXJ $ & 6 O.  ",
"    wX=X%XOX.XQ.G.b.z.k.v k.b k.k.k.v k.k.k.k.k.k.k.k.k.k.k.k.k.k.k.b k.b k.k.b k.k.k.k.k.k.v b v l i y 0 + 9 f qXA             ",
"LXKXPX%X.XT.G.n.k.v c c x x x x x x x c x c x x c c x x x x x x x x x x x c x x x x x x x l l k i y q 9 + 9 T wXY * : K -.p.KXKX",
"d.d.DX4XG.m.k.b x l k k k k k k k k k i k k i k k k k k k k k k k i i k k k i k k k i i i i i y q 0 9 w B {.=.O % < 7 @.0.s.d.d.",
"d.g.g.BX}.M.m z z z p u p p p u u u p p u p u a u u u p u u p p p p p p u p p u p u u a a p s f g N ~ wX,.H :   1 [ >.w.s.d.d.d.",
"d.s.d.g.SXcXkX7XuXuXuXuXtXtXtXuXuXuXuXuXtXuXtXwXtXtXuXuXtXtXuXuXuXuXtXtXuXuXsXwXtXtXuXuXuXtX0X0X8X,.! 3 < 1 P   o.0.i.d.s.d.d.d.",
"d.d.s.d.d.e.4.  7 / / / / / / / / / / K ( 8 P   6 8 8 / ( 8 8 8 ( / ( 8 / / P   6 8 / / 8 8 / / / / / ` [ o.2.  6.s.d.d.d.d.d.d.",
"d.d.g.d.d.d.DX  #.0.9.9.5.5.5.5.5.5.6.5.5.9.y.  #.5.5.6.5.5.6.6.6.9.5.5.9.9.y.  #.9.5.5.5.5.5.5.6.6.0.0.8.e.AX  8.d.d.d.d.d.d.d.",
"w.8.w.w.w.w.w.  w.w.w.w.w.8.w.w.w.w.8.8.w.w.w.  w.w.8.w.w.w.w.w.w.w.w.w.w.8.8.  w.w.w.w.w.w.w.w.w.w.w.w.w.w.w.  w.8.w.w.w.w.w.w.",
"                                                                                                                                ",
"KXLXKXKXKXKXKXLXKXKXKXKXKXKXKX  KXKXKXKXKXKXKXKXKXKXKXKXKXKXKX  KXKXKXKXKXKXKXKXKXKXKXKXKXKXKX  KXLXKXKXKXKXKXKXKXKXKXKXKXKXKX  ",
"w.d.d.d.d.g.d.d.g.d.d.d.d.d.KX  8.d.d.d.d.d.d.d.g.d.d.s.d.d.KX  w.d.d.d.d.d.d.d.d.d.d.d.d.d.KX  w.d.d.g.d.g.d.d.d.d.d.d.d.d.KX  ",
"w.g.d.d.d.d.d.d.d.d.d.d.d.d.KX  w.d.d.d.g.d.d.d.d.d.d.d.d.d.KX  w.d.d.d.g.d.d.d.d.d.d.d.d.d.KX  w.d.d.d.d.d.d.d.d.d.d.d.d.d.KX  ",
"w.d.d.d.d.d.d.d.d.d.d.d.d.d.KX  w.d.d.d.d.g.d.d.d.d.d.d.d.d.KX  w.d.d.d.d.d.d.d.d.d.d.g.d.d.KX  w.d.d.d.d.d.d.d.d.d.d.g.s.d.KX  ",
"w.d.d.d.d.d.d.d.d.d.d.d.d.d.KX  w.d.d.d.d.d.d.d.d.d.d.d.d.d.KX  w.d.d.d.d.d.d.d.d.d.d.d.g.d.KX  w.d.d.d.d.d.d.d.d.d.d.d.d.d.KX  ",
"8.d.d.d.d.d.d.d.g.d.d.d.g.d.KX  8.g.d.d.d.d.d.d.g.d.d.d.g.d.KX  8.g.d.d.d.d.d.d.g.d.d.s.d.d.KX  8.d.d.d.d.d.d.d.g.d.d.d.d.d.KX  ",
"w.w.w.w.w.w.w.w.w.8.w.w.w.w.w.  w.w.w.w.w.8.w.w.w.8.w.w.w.w.w.  w.w.w.w.w.w.8.w.w.8.w.w.w.w.w.  w.w.w.w.w.w.w.w.w.8.w.w.w.w.w.  ",
"                                                                                                                                ",
"KXKXKXLXKXKXKXKXKXKXKXKXKXKXKXKXKXKXKXKXKXKXKX  KXKXKXLXKXKXKXKXKXKXKXLXKXKXKXKXKXLXKXKXKXKXKXLXKXKXKXKXKXKXKX  KXLXKXKXKXKXKXKX",
"d.d.d.d.d.d.d.d.d.d.d.d.d.d.d.d.d.d.d.d.d.d.KX  w.d.d.d.g.d.g.d.d.d.d.d.d.d.d.d.d.d.d.d.d.d.d.d.d.d.d.d.d.d.KX  w.d.d.d.d.d.d.d.",
"d.d.d.d.d.d.d.d.d.d.d.d.d.d.d.d.d.d.d.d.d.d.KX  w.d.d.d.d.g.d.d.d.d.d.d.d.d.d.d.d.s.d.d.d.d.d.d.d.d.d.d.d.d.KX  w.d.d.d.d.d.g.d.",
"d.d.d.d.d.s.d.d.d.d.s.d.d.d.d.d.d.d.d.d.d.d.KX  w.d.d.d.d.d.d.d.d.d.d.d.d.d.s.d.d.d.d.d.d.d.d.d.d.d.d.g.d.d.KX  w.d.d.d.d.g.d.d.",
"d.d.s.d.d.d.d.d.d.d.d.d.d.d.s.d.d.d.d.d.d.g.KX  w.d.d.d.d.g.d.d.d.d.d.d.d.d.d.d.d.d.d.d.d.d.d.d.d.d.d.d.d.d.KX. w.d.d.d.d.d.d.d.",
"d.d.d.d.d.d.d.d.d.d.d.d.d.d.d.d.h.d.d.d.d.d.KX  8.d.d.d.d.s.d.d.d.d.d.d.s.d.d.d.d.d.d.d.d.d.d.d.g.d.d.s.d.d.KX  8.d.d.d.d.d.d.d.",
"w.w.w.w.w.w.w.w.w.w.w.w.w.w.w.8.w.w.w.w.w.w.w.  t.w.w.w.w.8.w.w.w.w.w.w.w.w.w.8.w.w.w.w.w.w.w.w.w.8.w.w.w.w.w.  w.w.w.w.w.w.w.w."
};
